<svg width="28" height="28" viewBox="0 0 28 28" fill="none" xmlns="http://www.w3.org/2000/svg">
<path d="M13.9998 0.800049C6.71674 0.800049 0.799805 6.71699 0.799805 14C0.799805 20.6115 5.67632 26.0831 12.0275 27.0372L12.7166 27.1415V16.7399H9.59824V14.6282H12.7166V11.8239C12.7166 10.097 13.131 8.9597 13.817 8.24614C14.503 7.53259 15.5166 7.1727 16.9271 7.1727C18.055 7.1727 18.4938 7.24104 18.9111 7.29224V9.02075H17.4428C16.6096 9.02075 15.9261 9.48559 15.5713 10.1047C15.2165 10.7239 15.1061 11.4631 15.1061 12.2165V14.627H18.7799L18.4529 16.7387H15.1061V27.1579L15.7869 27.0653C22.2284 26.1917 27.1998 20.6762 27.1998 14C27.1998 6.71699 21.2829 0.800049 13.9998 0.800049ZM13.9998 2.00005C20.6343 2.00005 25.9998 7.36551 25.9998 14C25.9998 19.8379 21.8213 24.6391 16.3061 25.72V17.9387H19.4818L20.1791 13.427H16.3061V12.2165C16.3061 11.594 16.4199 11.0362 16.6119 10.7012C16.8039 10.3662 16.9889 10.2208 17.4428 10.2208H20.1111V6.20591L19.5908 6.1356C19.2309 6.0869 18.4093 5.9727 16.9271 5.9727C15.3053 5.9727 13.9131 6.41452 12.9521 7.41411C11.9912 8.4137 11.5166 9.90213 11.5166 11.8239V13.4282H8.39824V17.9399H11.5166V25.6825C6.09 24.5329 1.9998 19.7747 1.9998 14C1.9998 7.36551 7.36527 2.00005 13.9998 2.00005Z" fill="#402310"/>
</svg>
