<svg width="28" height="28" viewBox="0 0 28 28" fill="none" xmlns="http://www.w3.org/2000/svg">
<path d="M8.5998 0.800049C4.29929 0.800049 0.799805 4.29954 0.799805 8.60005V19.4C0.799805 23.7006 4.29929 27.2 8.5998 27.2H19.3998C23.7003 27.2 27.1998 23.7006 27.1998 19.4V8.60005C27.1998 4.29954 23.7003 0.800049 19.3998 0.800049H8.5998ZM8.5998 2.00005H19.3998C23.0517 2.00005 25.9998 4.94816 25.9998 8.60005V19.4C25.9998 23.0519 23.0517 26 19.3998 26H8.5998C4.94791 26 1.9998 23.0519 1.9998 19.4V8.60005C1.9998 4.94816 4.94791 2.00005 8.5998 2.00005ZM21.1998 5.60005C20.8815 5.60005 20.5763 5.72648 20.3513 5.95152C20.1262 6.17656 19.9998 6.48179 19.9998 6.80005C19.9998 7.11831 20.1262 7.42353 20.3513 7.64858C20.5763 7.87362 20.8815 8.00005 21.1998 8.00005C21.5181 8.00005 21.8233 7.87362 22.0483 7.64858C22.2734 7.42353 22.3998 7.11831 22.3998 6.80005C22.3998 6.48179 22.2734 6.17656 22.0483 5.95152C21.8233 5.72648 21.5181 5.60005 21.1998 5.60005ZM13.9998 7.40005C10.3618 7.40005 7.3998 10.3621 7.3998 14C7.3998 17.638 10.3618 20.6 13.9998 20.6C17.6378 20.6 20.5998 17.638 20.5998 14C20.5998 10.3621 17.6378 7.40005 13.9998 7.40005ZM13.9998 8.60005C16.9892 8.60005 19.3998 11.0106 19.3998 14C19.3998 16.9895 16.9892 19.4 13.9998 19.4C11.0104 19.4 8.5998 16.9895 8.5998 14C8.5998 11.0106 11.0104 8.60005 13.9998 8.60005Z" fill="#402310"/>
</svg>
