<svg width="28" height="25" viewBox="0 0 28 25" fill="none" xmlns="http://www.w3.org/2000/svg">
<path d="M25.6262 0.591853C25.334 0.604674 25.0495 0.686006 24.793 0.788728C24.5391 0.890763 23.0774 1.51466 20.9188 2.43756C18.7602 3.36045 15.9542 4.56226 13.1727 5.75396C7.60965 8.13737 2.14301 10.4825 2.14301 10.4825L2.18285 10.4672C2.18285 10.4672 1.85291 10.5775 1.5184 10.8106C1.35114 10.9271 1.1712 11.0776 1.02387 11.2969C0.876535 11.5163 0.768825 11.8271 0.809416 12.1559C0.951989 13.3108 2.14887 13.6383 2.14887 13.6383L2.15356 13.6407L7.49496 15.4688C7.63115 15.9231 9.11503 20.8758 9.44145 21.9247C9.62172 22.5045 9.79045 22.8391 9.96645 23.0672C10.0545 23.1814 10.1468 23.2698 10.2489 23.3344C10.2894 23.3601 10.3321 23.3794 10.3743 23.3965C10.3752 23.3969 10.3757 23.3961 10.3766 23.3965C10.3818 23.3988 10.3867 23.399 10.3918 23.4012L10.3778 23.3977C10.3876 23.4017 10.3973 23.4083 10.4071 23.4118C10.4261 23.4184 10.4378 23.4182 10.4622 23.4235C11.0739 23.6371 11.5801 23.2407 11.5801 23.2407L11.6012 23.2243L14.8825 20.1809L20.2075 24.3329L20.2743 24.3633C21.2063 24.7772 22.0492 24.5463 22.5161 24.1665C22.9829 23.7866 23.1664 23.2969 23.1664 23.2969L23.1864 23.2454L27.0993 2.85123C27.1994 2.39497 27.2136 2.00058 27.1192 1.6442C27.0248 1.28782 26.7953 0.978018 26.5075 0.806306C26.2196 0.634595 25.9184 0.579033 25.6262 0.591853ZM25.6579 1.81178C25.7765 1.80628 25.8645 1.81985 25.8922 1.83638C25.92 1.85292 25.9324 1.85075 25.959 1.95123C25.9856 2.05171 26.0001 2.26335 25.9274 2.59459L25.925 2.60162L22.0344 22.8774C22.0252 22.8978 21.9441 23.0854 21.759 23.236C21.5702 23.3896 21.3602 23.5096 20.8028 23.2758L14.9797 18.7348L14.8157 18.6059L14.8122 18.6094L13.0707 17.3028L22.8571 5.78912C22.9323 5.70088 22.9803 5.59274 22.9953 5.47779C23.0104 5.36283 22.9918 5.24598 22.9418 5.14136C22.8919 5.03674 22.8127 4.94882 22.7138 4.88826C22.615 4.82769 22.5007 4.79705 22.3848 4.80006C22.2716 4.803 22.1615 4.83794 22.0672 4.90084L7.90629 14.3415L2.55668 12.5098C2.55668 12.5098 2.02547 12.2142 2.00004 12.0083C1.99863 11.9968 1.99236 12.0072 2.01996 11.9661C2.04757 11.925 2.11695 11.8556 2.20395 11.795C2.37793 11.6738 2.5766 11.6004 2.5766 11.6004L2.59652 11.5934L2.61645 11.5852C2.61645 11.5852 8.08338 9.23999 13.6461 6.8567C16.4275 5.66505 19.233 4.46413 21.3911 3.54146C23.5485 2.61903 25.1075 1.95508 25.2395 1.90201C25.3898 1.84183 25.5392 1.81727 25.6579 1.81178ZM19.168 8.27584L11.7465 17.0075L11.743 17.011C11.7314 17.0249 11.7205 17.0394 11.7102 17.0544C11.6984 17.0706 11.6875 17.0874 11.6774 17.1047C11.6357 17.1755 11.609 17.2541 11.5989 17.3356C11.5989 17.3372 11.5989 17.3387 11.5989 17.3403L10.6321 21.6879C10.616 21.641 10.6047 21.6238 10.5875 21.5684V21.5672C10.2805 20.5806 8.88046 15.9097 8.68676 15.2637L19.168 8.27584ZM12.5844 18.4383L13.918 19.4391L11.9586 21.2555L12.5844 18.4383Z" fill="#402310"/>
</svg>
