<svg width="26" height="29" viewBox="0 0 26 29" fill="none" xmlns="http://www.w3.org/2000/svg">
<path d="M12.6557 0.799926C11.8377 0.804614 11.0174 0.853832 10.19 0.954614C8.60801 1.14914 7.04004 1.47258 5.53535 2.16399C3.14238 3.26321 1.44551 5.12883 0.953321 7.84055C0.744728 8.9843 0.575978 10.1445 0.479884 11.3116C0.294728 13.5781 0.409571 15.8515 1.05176 18.0851C1.55801 19.8452 2.49082 21.4273 4.12442 22.4538C4.81582 22.8874 5.72754 23.0984 6.20332 23.3187C6.33692 23.382 6.36973 23.4195 6.37676 23.4288C6.38379 23.4359 6.40254 23.4523 6.4002 23.5929C6.38379 25.0273 6.4002 27.8023 6.4002 27.8023L6.40254 28.3999H7.47364L7.64707 28.2312C7.64707 28.2312 10.3682 25.6132 11.3525 24.5351C11.5307 24.3429 11.6221 24.2351 11.6408 24.2234C11.6572 24.2116 11.6291 24.2046 11.8119 24.1999C13.1033 24.1741 14.3924 24.1249 15.6814 24.0546C17.3807 23.9609 19.1127 23.7991 20.7791 23.1031C22.2299 22.496 23.4416 21.5046 24.1752 20.0187C24.9252 18.4952 25.326 16.8804 25.476 15.2093C25.7244 12.4273 25.6377 9.64055 24.8689 6.89368C24.4166 5.28352 23.5072 3.9218 22.1127 2.96086C20.4439 1.81243 18.5619 1.38118 16.7197 1.10696C15.6439 0.947582 14.5611 0.842114 13.4736 0.809301C13.2018 0.80227 12.9299 0.797582 12.6557 0.799926ZM13.4408 2.0093C14.4744 2.03743 15.508 2.13821 16.5439 2.29289C18.3205 2.55774 19.9963 2.96086 21.433 3.94993C22.5979 4.75149 23.3244 5.8343 23.7135 7.21477C24.4307 9.78352 24.5221 12.4156 24.2807 15.1038C24.1424 16.6531 23.7744 18.1132 23.0971 19.489C22.4994 20.7031 21.5666 21.4741 20.315 21.9968C18.8619 22.6038 17.2822 22.7656 15.6182 22.857C14.3432 22.9273 13.0658 22.9741 11.7885 22.9999C11.4674 23.007 11.1533 23.0913 10.9307 23.2554C10.708 23.4195 10.6072 23.5718 10.4689 23.7218C9.76582 24.4906 8.36426 25.8429 7.6002 26.5835C7.59551 25.6882 7.58848 24.6054 7.6002 23.607C7.60489 23.2999 7.53457 22.9859 7.35879 22.7374C7.18301 22.489 6.9416 22.339 6.70957 22.2312C6.03223 21.9171 5.14629 21.6781 4.76192 21.4366C3.41895 20.5929 2.65723 19.3273 2.20488 17.7523C1.61191 15.6921 1.49941 13.571 1.6752 11.4124C1.76895 10.2921 1.93067 9.16946 2.13457 8.05618C2.56113 5.71008 3.90176 4.23352 6.03457 3.25383C7.38223 2.63508 8.82129 2.33039 10.3377 2.14524C11.3713 2.01868 12.4049 1.97883 13.4408 2.0093ZM13.6939 4.99993C13.1994 4.99993 12.7189 5.05618 12.2525 5.1593C11.9314 5.2343 11.7275 5.55539 11.8002 5.87883C11.8729 6.20227 12.1963 6.40383 12.5197 6.33118C12.8971 6.24446 13.2908 6.19993 13.6939 6.19993C16.6236 6.19993 18.9861 8.56243 18.9861 11.4898C18.9861 11.8952 18.9416 12.289 18.8549 12.6687C18.7822 12.9898 18.9838 13.3132 19.3072 13.3859C19.6307 13.4585 19.9518 13.2546 20.0244 12.9312C20.1299 12.4671 20.1861 11.9866 20.1861 11.4898C20.1861 7.91321 17.2729 4.99993 13.6939 4.99993ZM7.70801 6.20227C7.60957 6.19758 7.50879 6.20461 7.40332 6.22805C6.31348 6.46946 5.23067 7.2593 5.2002 8.67024C5.23067 8.86711 5.22832 9.07805 5.30098 9.25618C5.65723 10.1281 5.9666 11.0281 6.41192 11.8531C8.57989 15.8609 11.8588 18.6476 16.0377 20.4171C16.5369 20.628 17.0525 20.6726 17.5564 20.4616C18.2502 20.1734 18.8385 19.7281 19.2299 19.0882C19.7666 18.2093 19.7736 17.5999 18.89 16.9507C18.3111 16.5241 17.7416 16.0859 17.1557 15.6687C16.2627 15.0359 15.2971 14.9257 14.6314 16.0366C14.5963 16.0929 14.5447 16.1398 14.5002 16.1866C14.158 16.5499 13.7385 16.639 13.2932 16.4562C11.6033 15.7601 10.2979 14.6374 9.51035 12.9663C9.04629 11.9843 9.17285 11.4921 10.04 10.8382C10.1268 10.7749 10.2088 10.707 10.2885 10.6343C10.6682 10.2874 10.7689 9.87493 10.5439 9.40852C10.0354 8.34446 9.35801 7.39524 8.5002 6.57727C8.26817 6.35696 8.00332 6.21868 7.70801 6.20227ZM13.6846 6.79993C13.4197 6.79993 13.1572 6.82102 12.8994 6.86555C12.6814 6.89368 12.4963 7.03899 12.4166 7.24289C12.3369 7.44914 12.3768 7.68118 12.5174 7.84993C12.6604 8.01633 12.8854 8.09368 13.101 8.0468C13.2885 8.01633 13.4854 7.99993 13.6846 7.99993C15.6346 7.99993 17.2002 9.56555 17.2002 11.5156C17.2002 11.7148 17.1838 11.9116 17.1533 12.0991C17.1064 12.3148 17.1838 12.5398 17.3502 12.6827C17.5189 12.8234 17.751 12.8632 17.9572 12.7835C18.1611 12.7038 18.3064 12.5187 18.3346 12.3007C18.3791 12.0429 18.4002 11.7804 18.4002 11.5156C18.4002 8.91868 16.2814 6.79993 13.6846 6.79993ZM13.6002 8.59993C13.3846 8.59758 13.183 8.71008 13.0729 8.89758C12.965 9.08508 12.965 9.31477 13.0729 9.50227C13.183 9.68977 13.3846 9.80227 13.6002 9.79993C14.601 9.79993 15.4002 10.5991 15.4002 11.5999C15.3979 11.8156 15.5104 12.0171 15.6979 12.1273C15.8854 12.2351 16.115 12.2351 16.3025 12.1273C16.49 12.0171 16.6025 11.8156 16.6002 11.5999C16.6002 9.94993 15.2502 8.59993 13.6002 8.59993Z" fill="#402310"/>
</svg>
